<?xml version="1.0" encoding="utf-8"?>
<!-- Generator: Adobe Illustrator 27.0.0, SVG Export Plug-In . SVG Version: 6.00 Build 0)  -->
<svg version="1.1" id="_图层_1" xmlns="http://www.w3.org/2000/svg" xmlns:xlink="http://www.w3.org/1999/xlink" x="0px" y="0px"
	 viewBox="0 0 800 150" style="enable-background:new 0 0 800 150;" xml:space="preserve">
<style type="text/css">
	.st0{fill:#006934;}
	.st1{fill:#0052D9;}
	.st2{fill:#FFFFFF;}
</style>
<g>
	<g>
		<polygon class="st0" points="83.9,140.6 31.3,116.1 31.3,2.1 83.9,26.6 		"/>
		<polyline class="st0" points="145,2.1 92.4,26.6 92.4,140.6 145,116.1 		"/>
		<polygon class="st1" points="87.7,150 16.7,125.5 16.7,11.5 87.7,36 		"/>
		<polygon class="st1" points="160.5,11.5 89.5,36 89.5,150 160.5,125.5 		"/>
	</g>
	<g>
		<path class="st2" d="M78.5,73.7L23,52.1c-0.7,0-1.3-0.6-1.3-1.3v-4.3c0-0.7,0.6-1.3,1.3-1.3l55.5,21.6c0.7,0,1.3,0.6,1.3,1.3v4.3
			C79.8,73.1,79.2,73.7,78.5,73.7L78.5,73.7z"/>
		<path class="st2" d="M78.5,87.9L23,66.3c-0.7,0-1.3-0.6-1.3-1.3v-4.3c0-0.7,0.6-1.3,1.3-1.3L78.5,81c0.7,0,1.3,0.6,1.3,1.3v4.3
			C79.8,87.3,79.2,87.9,78.5,87.9L78.5,87.9z"/>
		<path class="st2" d="M78.5,102.1L23,80.5c-0.7,0-1.3-0.6-1.3-1.3v-4.3c0-0.7,0.6-1.3,1.3-1.3l55.5,21.6c0.7,0,1.3,0.6,1.3,1.3v4.3
			C79.8,101.5,79.2,102.1,78.5,102.1z"/>
		<path class="st2" d="M78.5,116.2L23,94.7c-0.7,0-1.3-0.6-1.3-1.3v-4.3c0-0.7,0.6-1.3,1.3-1.3l55.5,21.6c0.7,0,1.3,0.6,1.3,1.3v4.3
			C79.8,115.7,79.2,116.2,78.5,116.2z"/>
	</g>
	<g>
		<path class="st2" d="M153.5,87.9L98,109.3c-0.7,0-1.3,0.6-1.3,1.3v4.3c0,0.7,0.5,1.3,1.2,1.3l55.6-21.4c0.7,0,1.3-0.6,1.3-1.3
			v-4.3C154.8,88.5,154.2,87.9,153.5,87.9z"/>
		<path class="st2" d="M153.6,73.7L98,95.1c-0.7,0-1.3,0.6-1.3,1.3v4.3c0,0.7,0.5,1.3,1.2,1.3l55.6-21.4c0.7,0,1.3-0.6,1.3-1.3V75
			C154.8,74.3,154.3,73.7,153.6,73.7z"/>
		<path class="st2" d="M153.6,59.5L98,81c-0.7,0-1.3,0.6-1.3,1.3v4.3c0,0.7,0.5,1.3,1.2,1.3l55.6-21.4c0.7,0,1.3-0.6,1.3-1.3v-4.3
			C154.9,60.1,154.3,59.5,153.6,59.5L153.6,59.5z"/>
		<path class="st2" d="M153.7,45.4L98.1,66.8c-0.7,0-1.3,0.6-1.3,1.3v4.3c0,0.7,0.5,1.3,1.2,1.3l55.6-21.4c0.7,0,1.3-0.6,1.3-1.3
			v-4.3C154.9,45.9,154.4,45.4,153.7,45.4z"/>
	</g>
</g>
</svg>
